<?xml version="1.0" encoding="utf-8"?>
<!-- Generator: Adobe Illustrator 14.0.0, SVG Export Plug-In . SVG Version: 6.00 Build 43363)  -->
<!DOCTYPE svg PUBLIC "-//W3C//DTD SVG 1.1//EN" "http://www.w3.org/Graphics/SVG/1.1/DTD/svg11.dtd">
<svg version="1.1" id="Layer_1" xmlns="http://www.w3.org/2000/svg" xmlns:xlink="http://www.w3.org/1999/xlink" x="0px" y="0px"
	 width="20px" height="30px" viewBox="0 0 20 30" enable-background="new 0 0 20 30" xml:space="preserve">
<circle cx="10" cy="5" r="1"/>
<path d="M18,7h-1c0,0,0-1.5-1-1.5c0,0-1,0-1-1.5V2c0,0,0-2-2-2H7c0,0-2,0-2,2v2c0,0,0,1.5-1,1.5c0,0-1,0-1,1.5H2c0,0-2,0-2,2v19
	c0,0,0,2,2,2h16c2,0,2-2,2-2V9C20,7,18,7,18,7z M5,7c0,0,0-1,1-1c0,0,1,0,1-2V3c0,0,0-1,1-1h4c0,0,1,0,1,1v1c0,0,0,2,1,2
	c0,0,1,0,1,1v1c0,0,0,1-1,1H6c0,0-1,0-1-1V7z M16.707,16.707l-8,8C8.512,24.902,8.256,25,8,25s-0.512-0.098-0.707-0.293l-4-4
	c-0.391-0.391-0.391-1.023,0-1.414s1.023-0.391,1.414,0L8,22.586l7.293-7.293c0.391-0.391,1.023-0.391,1.414,0
	S17.098,16.316,16.707,16.707z"/>
</svg>
