<?xml version="1.0" encoding="utf-8"?>
<!-- Generator: Adobe Illustrator 14.0.0, SVG Export Plug-In . SVG Version: 6.00 Build 43363)  -->
<!DOCTYPE svg PUBLIC "-//W3C//DTD SVG 1.1//EN" "http://www.w3.org/Graphics/SVG/1.1/DTD/svg11.dtd">
<svg version="1.1" id="Layer_1" xmlns="http://www.w3.org/2000/svg" xmlns:xlink="http://www.w3.org/1999/xlink" x="0px" y="0px"
	 width="320px" height="180px" viewBox="0 0 320 180" enable-background="new 0 0 320 180" xml:space="preserve">
<g>
	<rect fill="none" width="320" height="180"/>
	<path fill="#FFFFFF" d="M27.402,70.008c-1.536-0.703-2.72-1.688-3.552-2.951c-0.833-1.264-1.248-2.729-1.248-4.393
		c0-1.408,0.296-2.688,0.888-3.84c0.592-1.152,1.392-2.064,2.4-2.736c1.008-0.672,2.12-1.008,3.336-1.008
		c1.12,0,2.064,0.281,2.832,0.84c0.768,0.561,1.248,1.337,1.44,2.328c-1.664,0-2.992,0.44-3.984,1.32
		c-0.992,0.881-1.488,2.072-1.488,3.576c0,1.376,0.416,2.48,1.248,3.312c0.832,0.833,1.936,1.248,3.312,1.248
		c1.695,0,3.096-0.567,4.2-1.704c1.104-1.135,1.656-2.568,1.656-4.296c0-1.503-0.417-2.928-1.248-4.272
		c-0.833-1.344-2.081-2.976-3.744-4.896c-1.728-1.983-3.032-3.688-3.912-5.112c-0.88-1.424-1.32-2.982-1.32-4.68
		c0-1.664,0.463-3.16,1.392-4.488c0.928-1.327,2.208-2.375,3.84-3.144s3.472-1.152,5.52-1.152c2.592,0,4.664,0.608,6.216,1.824
		c1.552,1.216,2.328,2.849,2.328,4.896c0,1.345-0.336,2.433-1.008,3.265c-0.672,0.833-1.553,1.248-2.64,1.248
		c-1.216,0-2.192-0.496-2.928-1.488c0.608-0.448,1.088-1.04,1.44-1.776c0.352-0.735,0.528-1.504,0.528-2.304
		c0-1.023-0.305-1.839-0.912-2.448c-0.608-0.607-1.44-0.912-2.496-0.912c-1.28,0-2.328,0.457-3.144,1.369
		c-0.816,0.912-1.224,2.072-1.224,3.479c0,1.28,0.367,2.472,1.104,3.575c0.735,1.104,1.888,2.521,3.456,4.248
		c1.279,1.377,2.312,2.561,3.096,3.553c0.784,0.992,1.456,2.136,2.016,3.432c0.56,1.297,0.84,2.696,0.84,4.2
		c0,2.048-0.568,3.905-1.704,5.567c-1.136,1.665-2.688,2.977-4.656,3.937s-4.152,1.44-6.552,1.44
		C30.714,71.064,28.938,70.712,27.402,70.008z"/>
	<path fill="#FFFFFF" d="M49.674,68.641c-1.313-1.232-1.968-3.16-1.968-5.785c0-2.207,0.432-4.639,1.296-7.295
		c0.864-2.656,2.272-4.951,4.224-6.889c1.952-1.936,4.432-2.904,7.44-2.904c3.52,0,5.28,1.537,5.28,4.608
		c0,1.792-0.513,3.44-1.536,4.944c-1.024,1.504-2.384,2.712-4.08,3.624c-1.696,0.911-3.504,1.433-5.424,1.56
		c-0.064,0.961-0.096,1.601-0.096,1.92c0,1.568,0.271,2.633,0.816,3.192c0.544,0.56,1.424,0.84,2.64,0.84
		c1.728,0,3.208-0.399,4.44-1.2c1.231-0.799,2.584-2.016,4.056-3.647h1.632c-3.552,5.921-7.952,8.88-13.2,8.88
		C52.825,70.488,50.985,69.873,49.674,68.641z M58.674,56.952c1.071-0.769,1.936-1.743,2.592-2.928
		c0.655-1.184,0.984-2.432,0.984-3.744c0-1.312-0.4-1.968-1.2-1.968c-1.152,0-2.28,1.008-3.384,3.023S55.77,55.641,55.29,58.2
		C56.473,58.137,57.601,57.721,58.674,56.952z"/>
	<path fill="#FFFFFF" d="M68.057,68.641c-1.312-1.232-1.968-3.16-1.968-5.785c0-2.207,0.432-4.639,1.296-7.295
		c0.864-2.656,2.271-4.951,4.224-6.889c1.951-1.936,4.432-2.904,7.44-2.904c3.52,0,5.28,1.537,5.28,4.608
		c0,1.792-0.512,3.44-1.536,4.944c-1.025,1.504-2.384,2.712-4.08,3.624c-1.697,0.911-3.504,1.433-5.424,1.56
		c-0.064,0.705-0.096,1.185-0.096,1.44c0,2.656,0.991,3.983,2.976,3.983c0.896,0,1.855-0.24,2.88-0.72
		c1.023-0.479,1.951-1.087,2.784-1.823c-0.864,4.736-3.632,7.104-8.304,7.104C71.193,70.488,69.369,69.873,68.057,68.641z
		 M77.057,57c1.072-0.768,1.936-1.752,2.592-2.951c0.655-1.201,0.984-2.456,0.984-3.769c0-1.312-0.4-1.968-1.2-1.968
		c-1.121,0-2.232,1.016-3.336,3.048s-1.928,4.313-2.472,6.84C74.841,58.168,75.985,57.768,77.057,57z"/>
	<path fill="#FFFFFF" d="M96.137,68.568c-1.376-1.216-2.064-3.136-2.064-5.76c0-2.176,0.448-4.592,1.344-7.248
		s2.335-4.951,4.32-6.889c1.983-1.936,4.479-2.904,7.488-2.904c4.096,0,6.144,2.561,6.144,7.681v0.048
		c0.096,0.032,0.271,0.049,0.528,0.049c1.056,0,2.272-0.28,3.648-0.841c1.375-0.56,2.624-1.239,3.744-2.04l0.432,1.296
		c-0.929,0.993-2.136,1.833-3.624,2.521c-1.488,0.688-3.113,1.176-4.872,1.464c-0.256,2.912-0.912,5.456-1.968,7.632
		c-1.056,2.177-2.417,3.856-4.08,5.04c-1.665,1.185-3.473,1.776-5.424,1.776C99.384,70.393,97.512,69.785,96.137,68.568z
		 M105.977,64.752c0.768-0.879,1.44-2.08,2.016-3.6s0.991-3.208,1.248-5.064c-0.864-0.191-1.296-0.863-1.296-2.016
		c0-1.313,0.496-2.176,1.488-2.592c-0.064-1.057-0.224-1.783-0.48-2.184c-0.256-0.4-0.704-0.601-1.344-0.601
		c-1.056,0-2.08,0.769-3.072,2.304c-0.992,1.536-1.792,3.377-2.4,5.52c-0.608,2.145-0.912,4.033-0.912,5.664
		c0,1.537,0.175,2.568,0.528,3.097c0.352,0.528,0.992,0.792,1.92,0.792C104.44,66.072,105.208,65.633,105.977,64.752z"/>
	<path fill="#FFFFFF" d="M116.849,69.049c-0.944-0.961-1.416-2.4-1.416-4.32c0-0.8,0.128-1.84,0.384-3.12l3.264-15.408h6.912
		l-3.456,16.319c-0.096,0.48-0.144,0.93-0.144,1.345c0,1.313,0.48,1.968,1.44,1.968c0.896,0,1.664-0.375,2.304-1.128
		c0.64-0.751,1.152-1.783,1.536-3.096l3.264-15.408h6.912l-3.456,16.319c-0.128,0.48-0.192,0.992-0.192,1.537
		c0,0.641,0.152,1.096,0.456,1.367c0.304,0.272,0.808,0.408,1.512,0.408c0.896,0,1.672-0.384,2.328-1.152
		c0.655-0.768,1.176-1.791,1.56-3.071h2.016c-1.184,3.456-2.648,5.8-4.392,7.032s-3.496,1.848-5.256,1.848
		c-1.376,0-2.472-0.385-3.288-1.152c-0.816-0.768-1.304-1.903-1.464-3.408c-1.088,1.761-2.232,2.961-3.432,3.601
		c-1.2,0.64-2.424,0.96-3.672,0.96C119.032,70.488,117.792,70.008,116.849,69.049z"/>
	<path fill="#FFFFFF" d="M143.32,46.2h6.912l-0.624,2.976c1.088-0.959,2.072-1.695,2.952-2.207c0.88-0.512,1.832-0.769,2.856-0.769
		c1.024,0,1.832,0.353,2.424,1.056c0.592,0.705,0.888,1.553,0.888,2.545c0,0.928-0.304,1.744-0.912,2.447
		c-0.608,0.705-1.456,1.057-2.544,1.057c-0.704,0-1.176-0.168-1.416-0.504c-0.24-0.336-0.424-0.824-0.552-1.465
		c-0.096-0.415-0.192-0.72-0.288-0.912c-0.096-0.191-0.272-0.287-0.528-0.287c-0.672,0-1.241,0.136-1.704,0.408
		c-0.464,0.271-1.064,0.743-1.8,1.415l-3.84,18.24h-6.912L143.32,46.2z"/>
	<path fill="#FFFFFF" d="M160.24,80.736c-1.136-0.977-1.704-2.217-1.704-3.721c0-1.375,0.353-2.512,1.056-3.407
		c0.705-0.896,1.617-1.608,2.736-2.136c1.121-0.528,2.608-1.08,4.465-1.656l5.808-27.408c0.64-3.072,1.768-5.199,3.384-6.384
		c1.615-1.184,3.399-1.776,5.353-1.776c1.503,0,2.823,0.488,3.96,1.465c1.135,0.976,1.704,2.215,1.704,3.719
		c0,0.736-0.049,1.393-0.145,1.969H184.6c0.063-0.703,0.096-1.136,0.096-1.297c0-0.511-0.176-0.911-0.527-1.199
		c-0.353-0.288-0.785-0.432-1.297-0.432c-0.672,0-1.328,0.296-1.968,0.888c-0.641,0.593-1.104,1.608-1.392,3.048l-0.816,3.792h3.504
		l-0.336,1.92h-3.552l-5.52,25.92c-0.641,3.104-1.745,5.239-3.313,6.408c-1.567,1.167-3.328,1.752-5.28,1.752
		C162.696,82.2,161.376,81.712,160.24,80.736z M165.832,74.184l0.624-2.783c-1.695,0.576-3,1.24-3.911,1.992
		c-0.912,0.751-1.368,1.735-1.368,2.951c0,0.385,0.191,0.744,0.576,1.08c0.384,0.336,0.832,0.504,1.344,0.504
		C164.376,77.928,165.289,76.68,165.832,74.184z"/>
	<path fill="#FFFFFF" d="M182.536,68.616c-1.216-1.248-1.824-3.2-1.824-5.856c0-2.367,0.473-4.855,1.416-7.463
		c0.943-2.608,2.352-4.816,4.224-6.625c1.872-1.807,4.104-2.712,6.696-2.712c1.312,0,2.287,0.225,2.928,0.673
		c0.64,0.447,0.96,1.039,0.96,1.775v0.336l0.528-2.544h6.912l-3.456,16.319c-0.128,0.48-0.192,0.992-0.192,1.537
		c0,1.376,0.656,2.063,1.969,2.063c0.896,0,1.672-0.415,2.328-1.248c0.655-0.831,1.176-1.92,1.56-3.264h2.016
		c-1.184,3.456-2.647,5.8-4.392,7.032s-3.496,1.848-5.256,1.848c-1.344,0-2.424-0.376-3.24-1.128
		c-0.816-0.751-1.305-1.849-1.464-3.288c-0.929,1.313-1.961,2.376-3.096,3.191c-1.137,0.816-2.489,1.225-4.057,1.225
		C185.271,70.488,183.751,69.864,182.536,68.616z M192.591,64.704c0.784-0.751,1.32-1.783,1.608-3.096l2.304-10.849
		c0-0.415-0.16-0.823-0.479-1.224c-0.32-0.399-0.816-0.601-1.488-0.601c-1.28,0-2.433,0.744-3.456,2.232
		c-1.024,1.488-1.824,3.281-2.4,5.377s-0.863,3.943-0.863,5.543c0,1.601,0.231,2.625,0.695,3.072
		c0.464,0.449,1.032,0.672,1.704,0.672C191.015,65.832,191.807,65.457,192.591,64.704z"/>
	<path fill="#FFFFFF" d="M207.926,68.641c-1.313-1.232-1.968-3.16-1.968-5.785c0-2.207,0.44-4.639,1.32-7.295
		s2.287-4.951,4.224-6.889c1.936-1.936,4.392-2.904,7.368-2.904c1.92,0,3.288,0.417,4.104,1.248
		c0.816,0.833,1.225,1.889,1.225,3.168c0,1.121-0.24,1.984-0.72,2.593c-0.48,0.608-1.089,0.911-1.824,0.911
		c-0.545,0-1.104-0.191-1.681-0.575c0.385-1.056,0.576-1.999,0.576-2.832c0-0.607-0.112-1.087-0.336-1.44
		c-0.224-0.352-0.561-0.527-1.008-0.527c-0.96,0-1.92,0.784-2.88,2.352c-0.96,1.568-1.745,3.473-2.353,5.712
		c-0.607,2.24-0.911,4.257-0.911,6.048c0,1.568,0.271,2.633,0.815,3.192s1.424,0.84,2.64,0.84c1.729,0,3.208-0.399,4.44-1.2
		c1.231-0.799,2.584-2.016,4.056-3.647h1.633c-3.553,5.921-7.953,8.88-13.2,8.88C211.078,70.488,209.238,69.873,207.926,68.641z"/>
	<path fill="#FFFFFF" d="M226.046,69.049c-0.944-0.961-1.416-2.4-1.416-4.32c0-0.8,0.128-1.84,0.384-3.12l2.88-13.488h-1.584
		l0.384-1.92h1.584l1.44-6.624l7.104-0.96L235.19,46.2h2.88l-0.384,1.92h-2.88l-3.072,14.399c-0.128,0.48-0.191,0.992-0.191,1.537
		c0,0.641,0.151,1.096,0.456,1.367c0.304,0.272,0.808,0.408,1.512,0.408c0.928,0,1.792-0.391,2.592-1.176
		c0.8-0.783,1.376-1.801,1.729-3.048h2.016c-1.185,3.456-2.704,5.8-4.56,7.032c-1.856,1.232-3.696,1.848-5.521,1.848
		C228.23,70.488,226.99,70.008,226.046,69.049z"/>
	<path fill="#FFFFFF" d="M239.221,68.568c-1.376-1.216-2.063-3.136-2.063-5.76c0-2.176,0.448-4.592,1.344-7.248
		s2.336-4.951,4.32-6.889c1.983-1.936,4.479-2.904,7.488-2.904c4.096,0,6.144,2.561,6.144,7.681v0.048
		c0.096,0.032,0.271,0.049,0.528,0.049c1.056,0,2.271-0.28,3.647-0.841c1.376-0.56,2.624-1.239,3.744-2.04l0.432,1.296
		c-0.928,0.993-2.136,1.833-3.624,2.521c-1.487,0.688-3.112,1.176-4.871,1.464c-0.257,2.912-0.912,5.456-1.969,7.632
		c-1.056,2.177-2.416,3.856-4.08,5.04c-1.664,1.185-3.472,1.776-5.424,1.776C242.469,70.393,240.597,69.785,239.221,68.568z
		 M249.062,64.752c0.768-0.879,1.439-2.08,2.016-3.6s0.991-3.208,1.248-5.064c-0.864-0.191-1.296-0.863-1.296-2.016
		c0-1.313,0.495-2.176,1.488-2.592c-0.065-1.057-0.225-1.783-0.48-2.184c-0.257-0.4-0.704-0.601-1.344-0.601
		c-1.057,0-2.081,0.769-3.072,2.304c-0.992,1.536-1.793,3.377-2.4,5.52c-0.607,2.145-0.911,4.033-0.911,5.664
		c0,1.537,0.175,2.568,0.527,3.097c0.352,0.528,0.991,0.792,1.92,0.792C247.526,66.072,248.293,65.633,249.062,64.752z"/>
	<path fill="#FFFFFF" d="M262.166,46.2h6.912l-0.624,2.976c1.088-0.959,2.071-1.695,2.952-2.207c0.88-0.512,1.832-0.769,2.856-0.769
		c1.023,0,1.831,0.353,2.424,1.056c0.592,0.705,0.888,1.553,0.888,2.545c0,0.928-0.305,1.744-0.912,2.447
		c-0.608,0.705-1.456,1.057-2.544,1.057c-0.704,0-1.176-0.168-1.416-0.504s-0.424-0.824-0.552-1.465
		c-0.096-0.415-0.192-0.72-0.288-0.912c-0.096-0.191-0.272-0.287-0.528-0.287c-0.672,0-1.24,0.136-1.704,0.408
		c-0.464,0.271-1.063,0.743-1.8,1.415l-3.84,18.24h-6.912L262.166,46.2z"/>
	<path fill="#FFFFFF" d="M280.478,80.736c-1.137-0.977-1.704-2.217-1.704-3.721c0-1.408,0.352-2.561,1.056-3.455
		c0.704-0.896,1.615-1.602,2.736-2.112c1.119-0.513,2.623-1.056,4.512-1.632l0.48-2.112c-1.633,1.856-3.585,2.784-5.856,2.784
		c-1.536,0-2.776-0.48-3.72-1.439c-0.944-0.961-1.416-2.4-1.416-4.32c0-0.8,0.128-1.84,0.384-3.12l3.264-15.408h6.912l-3.456,16.319
		c-0.096,0.385-0.144,0.785-0.144,1.201c0,1.408,0.479,2.111,1.439,2.111c0.896,0,1.664-0.375,2.305-1.128
		c0.64-0.751,1.151-1.783,1.536-3.096L292.07,46.2h6.96l-5.856,27.84c-0.64,3.072-1.769,5.2-3.384,6.384
		c-1.616,1.184-3.4,1.776-5.352,1.776C282.933,82.2,281.613,81.712,280.478,80.736z M284.965,77.04
		c0.512-0.593,0.912-1.544,1.2-2.856l0.576-2.832c-1.696,0.576-3.008,1.248-3.936,2.017c-0.929,0.769-1.393,1.76-1.393,2.976
		c0,0.385,0.192,0.744,0.576,1.08s0.832,0.504,1.344,0.504C283.91,77.928,284.454,77.632,284.965,77.04z"/>
</g>
</svg>
