<?xml version="1.0" encoding="utf-8"?>
<!-- Generator: Adobe Illustrator 14.0.0, SVG Export Plug-In . SVG Version: 6.00 Build 43363)  -->
<!DOCTYPE svg PUBLIC "-//W3C//DTD SVG 1.1//EN" "http://www.w3.org/Graphics/SVG/1.1/DTD/svg11.dtd">
<svg version="1.1" id="Truck" xmlns="http://www.w3.org/2000/svg" xmlns:xlink="http://www.w3.org/1999/xlink" x="0px" y="0px"
	 width="30px" height="20px" viewBox="0 0 30 20" enable-background="new 0 0 30 20" xml:space="preserve">
<path stroke="#000000" stroke-width="0" stroke-linecap="square" stroke-miterlimit="10" d="M29,0H11c0,0-1,0-1,1v4H6c0,0-4,0-4,4v5
	H1c0,0-1,0-1,1c0,0,0,1,1,1s0,0,3,0c0,0,0,4,4,4c0,0,4,0,4-4h8c0,0,0,4,4,4c0,0,4,0,4-4h1c0,0,1,0,1-1V1C30,1,30,0,29,0z M8,18
	c-1.104,0-2-0.896-2-2s0.896-2,2-2s2,0.896,2,2S9.104,18,8,18z M10,11l-6,1V9c0-2,2-2,2-2h4V11z M24,18c-1.104,0-2-0.896-2-2
	s0.896-2,2-2s2,0.896,2,2S25.104,18,24,18z"/>
</svg>
